<svg id="visual" viewBox="0 0 900 600" width="900" height="600" xmlns="http://www.w3.org/2000/svg" xmlns:xlink="http://www.w3.org/1999/xlink" version="1.1"><rect x="0" y="0" width="900" height="600" fill="#001220"></rect><path d="M0 433L21.5 434.3C43 435.7 86 438.3 128.8 439.8C171.7 441.3 214.3 441.7 257.2 442.3C300 443 343 444 385.8 431.3C428.7 418.7 471.3 392.3 514.2 389.3C557 386.3 600 406.7 642.8 404C685.7 401.3 728.3 375.7 771.2 376.2C814 376.7 857 403.3 878.5 416.7L900 430L900 601L878.5 601C857 601 814 601 771.2 601C728.3 601 685.7 601 642.8 601C600 601 557 601 514.2 601C471.3 601 428.7 601 385.8 601C343 601 300 601 257.2 601C214.3 601 171.7 601 128.8 601C86 601 43 601 21.5 601L0 601Z" fill="#fa7268"></path><path d="M0 436L21.5 430C43 424 86 412 128.8 409.8C171.7 407.7 214.3 415.3 257.2 426.2C300 437 343 451 385.8 449.5C428.7 448 471.3 431 514.2 425.8C557 420.7 600 427.3 642.8 432.3C685.7 437.3 728.3 440.7 771.2 444.5C814 448.3 857 452.7 878.5 454.8L900 457L900 601L878.5 601C857 601 814 601 771.2 601C728.3 601 685.7 601 642.8 601C600 601 557 601 514.2 601C471.3 601 428.7 601 385.8 601C343 601 300 601 257.2 601C214.3 601 171.7 601 128.8 601C86 601 43 601 21.5 601L0 601Z" fill="#ef5f67"></path><path d="M0 498L21.5 497.8C43 497.7 86 497.3 128.8 498C171.7 498.7 214.3 500.3 257.2 500.2C300 500 343 498 385.8 488C428.7 478 471.3 460 514.2 462.2C557 464.3 600 486.7 642.8 488.5C685.7 490.3 728.3 471.7 771.2 461.5C814 451.3 857 449.7 878.5 448.8L900 448L900 601L878.5 601C857 601 814 601 771.2 601C728.3 601 685.7 601 642.8 601C600 601 557 601 514.2 601C471.3 601 428.7 601 385.8 601C343 601 300 601 257.2 601C214.3 601 171.7 601 128.8 601C86 601 43 601 21.5 601L0 601Z" fill="#e34c67"></path><path d="M0 504L21.5 501C43 498 86 492 128.8 491.3C171.7 490.7 214.3 495.3 257.2 499C300 502.7 343 505.3 385.8 507.5C428.7 509.7 471.3 511.3 514.2 507.7C557 504 600 495 642.8 497.8C685.7 500.7 728.3 515.3 771.2 515.2C814 515 857 500 878.5 492.5L900 485L900 601L878.5 601C857 601 814 601 771.2 601C728.3 601 685.7 601 642.8 601C600 601 557 601 514.2 601C471.3 601 428.7 601 385.8 601C343 601 300 601 257.2 601C214.3 601 171.7 601 128.8 601C86 601 43 601 21.5 601L0 601Z" fill="#d53867"></path><path d="M0 555L21.5 553C43 551 86 547 128.8 547.5C171.7 548 214.3 553 257.2 549.8C300 546.7 343 535.3 385.8 536.2C428.7 537 471.3 550 514.2 555.7C557 561.3 600 559.7 642.8 556.8C685.7 554 728.3 550 771.2 552C814 554 857 562 878.5 566L900 570L900 601L878.5 601C857 601 814 601 771.2 601C728.3 601 685.7 601 642.8 601C600 601 557 601 514.2 601C471.3 601 428.7 601 385.8 601C343 601 300 601 257.2 601C214.3 601 171.7 601 128.8 601C86 601 43 601 21.5 601L0 601Z" fill="#c62368"></path></svg>