<svg id="visual" viewBox="0 0 900 600" width="900" height="600" xmlns="http://www.w3.org/2000/svg" xmlns:xlink="http://www.w3.org/1999/xlink" version="1.1"><rect x="0" y="0" width="900" height="600" fill="#001220"></rect><path d="M0 445L21.5 429.8C43 414.7 86 384.3 128.8 377.5C171.7 370.7 214.3 387.3 257.2 401.3C300 415.3 343 426.7 385.8 433.7C428.7 440.7 471.3 443.3 514.2 431.8C557 420.3 600 394.7 642.8 382.8C685.7 371 728.3 373 771.2 383.7C814 394.3 857 413.7 878.5 423.3L900 433L900 601L878.5 601C857 601 814 601 771.2 601C728.3 601 685.7 601 642.8 601C600 601 557 601 514.2 601C471.3 601 428.7 601 385.8 601C343 601 300 601 257.2 601C214.3 601 171.7 601 128.8 601C86 601 43 601 21.5 601L0 601Z" fill="#fa7268"></path><path d="M0 451L21.5 455.7C43 460.3 86 469.7 128.8 471C171.7 472.3 214.3 465.7 257.2 456C300 446.3 343 433.7 385.8 433.7C428.7 433.7 471.3 446.3 514.2 447.7C557 449 600 439 642.8 441C685.7 443 728.3 457 771.2 463.5C814 470 857 469 878.5 468.5L900 468L900 601L878.5 601C857 601 814 601 771.2 601C728.3 601 685.7 601 642.8 601C600 601 557 601 514.2 601C471.3 601 428.7 601 385.8 601C343 601 300 601 257.2 601C214.3 601 171.7 601 128.8 601C86 601 43 601 21.5 601L0 601Z" fill="#ef5f67"></path><path d="M0 482L21.5 475.5C43 469 86 456 128.8 449.8C171.7 443.7 214.3 444.3 257.2 443.8C300 443.3 343 441.7 385.8 445.3C428.7 449 471.3 458 514.2 460.2C557 462.3 600 457.7 642.8 453.7C685.7 449.7 728.3 446.3 771.2 448.2C814 450 857 457 878.5 460.5L900 464L900 601L878.5 601C857 601 814 601 771.2 601C728.3 601 685.7 601 642.8 601C600 601 557 601 514.2 601C471.3 601 428.7 601 385.8 601C343 601 300 601 257.2 601C214.3 601 171.7 601 128.8 601C86 601 43 601 21.5 601L0 601Z" fill="#e34c67"></path><path d="M0 522L21.5 522.7C43 523.3 86 524.7 128.8 524.7C171.7 524.7 214.3 523.3 257.2 521.5C300 519.7 343 517.3 385.8 510.3C428.7 503.3 471.3 491.7 514.2 492.3C557 493 600 506 642.8 509.2C685.7 512.3 728.3 505.7 771.2 503.7C814 501.7 857 504.3 878.5 505.7L900 507L900 601L878.5 601C857 601 814 601 771.2 601C728.3 601 685.7 601 642.8 601C600 601 557 601 514.2 601C471.3 601 428.7 601 385.8 601C343 601 300 601 257.2 601C214.3 601 171.7 601 128.8 601C86 601 43 601 21.5 601L0 601Z" fill="#d53867"></path><path d="M0 563L21.5 558C43 553 86 543 128.8 541.8C171.7 540.7 214.3 548.3 257.2 549.2C300 550 343 544 385.8 541C428.7 538 471.3 538 514.2 539.3C557 540.7 600 543.3 642.8 547.7C685.7 552 728.3 558 771.2 561.2C814 564.3 857 564.7 878.5 564.8L900 565L900 601L878.5 601C857 601 814 601 771.2 601C728.3 601 685.7 601 642.8 601C600 601 557 601 514.2 601C471.3 601 428.7 601 385.8 601C343 601 300 601 257.2 601C214.3 601 171.7 601 128.8 601C86 601 43 601 21.5 601L0 601Z" fill="#c62368"></path></svg>